<mxfile host="app.diagrams.net" modified="2023-11-14T03:01:51.746Z" agent="Mozilla/5.0 (Windows NT 10.0; Win64; x64) AppleWebKit/537.36 (KHTML, like Gecko) Chrome/119.0.0.0 Safari/537.36" version="22.1.0" etag="Sgw2WlnnrIW67omS_Nlm" type="github">
  <diagram name="第 1 页" id="uOLNdTZtL3XxOUp7cKjH">
    <mxGraphModel>
      <root>
        <mxCell id="0" />
        <mxCell id="1" parent="0" />
      </root>
    </mxGraphModel>
  </diagram>
</mxfile>
